<?xml version="1.0" encoding="UTF-8" standalone="no"?>
<!DOCTYPE svg PUBLIC "-//W3C//DTD SVG 1.1//EN"
 "http://www.w3.org/Graphics/SVG/1.1/DTD/svg11.dtd">
<!-- Generated by graphviz version 2.40.1 (20161225.0304)
 -->
<!-- Title: dependencies Pages: 1 -->
<svg width="714pt" height="211pt"
 viewBox="0.00 0.00 714.00 211.00" xmlns="http://www.w3.org/2000/svg" xmlns:xlink="http://www.w3.org/1999/xlink">
<g id="graph0" class="graph" transform="scale(1 1) rotate(0) translate(4 207)">
<title>dependencies</title>
<polygon fill="#ffffff" stroke="transparent" points="-4,4 -4,-207 710,-207 710,4 -4,4"/>
<text text-anchor="start" x="332.0091" y="-42.4" font-family="sans-serif" font-weight="bold" font-size="14.00" fill="#000000">Legend</text>
<polygon fill="#ffffb3" stroke="transparent" points="119,-10 119,-30 139,-30 139,-10 119,-10"/>
<text text-anchor="start" x="142.629" y="-15.4" font-family="sans-serif" font-size="14.00" fill="#000000"> &#160;Declarations</text>
<polygon fill="#8dd3c7" stroke="transparent" points="232,-10 232,-30 252,-30 252,-10 232,-10"/>
<text text-anchor="start" x="255.7251" y="-15.4" font-family="sans-serif" font-size="14.00" fill="#000000"> &#160;Module</text>
<polygon fill="#80b1d3" stroke="transparent" points="318,-10 318,-30 338,-30 338,-10 318,-10"/>
<text text-anchor="start" x="341.7812" y="-15.4" font-family="sans-serif" font-size="14.00" fill="#000000"> &#160;Bootstrap</text>
<polygon fill="#fdb462" stroke="transparent" points="415,-10 415,-30 435,-30 435,-10 415,-10"/>
<text text-anchor="start" x="438.6732" y="-15.4" font-family="sans-serif" font-size="14.00" fill="#000000"> &#160;Providers</text>
<polygon fill="#fb8072" stroke="transparent" points="511,-10 511,-30 531,-30 531,-10 511,-10"/>
<text text-anchor="start" x="534.7258" y="-15.4" font-family="sans-serif" font-size="14.00" fill="#000000"> &#160;Exports</text>
<g id="clust1" class="cluster">
<title>cluster_PrestationsModule</title>
<polygon fill="none" stroke="#000000" stroke-dasharray="1,5" points="8,-70 8,-195 698,-195 698,-70 8,-70"/>
</g>
<g id="clust2" class="cluster">
<title>cluster_PrestationsModule_declarations</title>
<polygon fill="none" stroke="#000000" points="322,-78 322,-130 690,-130 690,-78 322,-78"/>
</g>
<g id="clust5" class="cluster">
<title>cluster_PrestationsModule_imports</title>
<polygon fill="none" stroke="#000000" points="16,-78 16,-130 314,-130 314,-78 16,-78"/>
</g>
<!-- LignePrestationComponent -->
<g id="node1" class="node">
<title>LignePrestationComponent</title>
<polygon fill="#ffffb3" stroke="#000000" points="681.979,-122 512.021,-122 512.021,-86 681.979,-86 681.979,-122"/>
<text text-anchor="middle" x="597" y="-99.8" font-family="Times,serif" font-size="14.00" fill="#000000">LignePrestationComponent</text>
</g>
<!-- PrestationsModule -->
<g id="node3" class="node">
<title>PrestationsModule</title>
<polygon fill="#8dd3c7" stroke="#000000" points="377.4832,-187 374.4832,-191 353.4832,-191 350.4832,-187 256.5168,-187 256.5168,-151 377.4832,-151 377.4832,-187"/>
<text text-anchor="middle" x="317" y="-164.8" font-family="Times,serif" font-size="14.00" fill="#000000">PrestationsModule</text>
</g>
<!-- LignePrestationComponent&#45;&gt;PrestationsModule -->
<g id="edge1" class="edge">
<title>LignePrestationComponent&#45;&gt;PrestationsModule</title>
<path fill="none" stroke="#000000" d="M597,-122.1061C597,-141.3391 597,-169 597,-169 597,-169 387.7558,-169 387.7558,-169"/>
<polygon fill="#000000" stroke="#000000" points="387.7559,-165.5001 377.7558,-169 387.7558,-172.5001 387.7559,-165.5001"/>
</g>
<!-- ListPrestationsComponent -->
<g id="node2" class="node">
<title>ListPrestationsComponent</title>
<polygon fill="#ffffb3" stroke="#000000" points="494.0448,-122 329.9552,-122 329.9552,-86 494.0448,-86 494.0448,-122"/>
<text text-anchor="middle" x="412" y="-99.8" font-family="Times,serif" font-size="14.00" fill="#000000">ListPrestationsComponent</text>
</g>
<!-- ListPrestationsComponent&#45;&gt;PrestationsModule -->
<g id="edge2" class="edge">
<title>ListPrestationsComponent&#45;&gt;PrestationsModule</title>
<path fill="none" stroke="#000000" d="M353.6098,-122.1061C353.6098,-122.1061 353.6098,-140.991 353.6098,-140.991"/>
<polygon fill="#000000" stroke="#000000" points="350.1098,-140.9909 353.6098,-150.991 357.1098,-140.991 350.1098,-140.9909"/>
</g>
<!-- PrestationsRoutingModule -->
<g id="node4" class="node">
<title>PrestationsRoutingModule</title>
<polygon fill="#8dd3c7" stroke="#000000" points="306.101,-122 303.101,-126 282.101,-126 279.101,-122 139.899,-122 139.899,-86 306.101,-86 306.101,-122"/>
<text text-anchor="middle" x="223" y="-99.8" font-family="Times,serif" font-size="14.00" fill="#000000">PrestationsRoutingModule</text>
</g>
<!-- PrestationsRoutingModule&#45;&gt;PrestationsModule -->
<g id="edge3" class="edge">
<title>PrestationsRoutingModule&#45;&gt;PrestationsModule</title>
<path fill="none" stroke="#000000" d="M281.2795,-122.1061C281.2795,-122.1061 281.2795,-140.991 281.2795,-140.991"/>
<polygon fill="#000000" stroke="#000000" points="277.7795,-140.9909 281.2795,-150.991 284.7795,-140.991 277.7795,-140.9909"/>
</g>
<!-- SharedModule -->
<g id="node5" class="node">
<title>SharedModule</title>
<polygon fill="#8dd3c7" stroke="#000000" points="122.4231,-122 119.4231,-126 98.4231,-126 95.4231,-122 23.5769,-122 23.5769,-86 122.4231,-86 122.4231,-122"/>
<text text-anchor="middle" x="73" y="-99.8" font-family="Times,serif" font-size="14.00" fill="#000000">SharedModule</text>
</g>
<!-- SharedModule&#45;&gt;PrestationsModule -->
<g id="edge4" class="edge">
<title>SharedModule&#45;&gt;PrestationsModule</title>
<path fill="none" stroke="#000000" d="M73,-122.1061C73,-141.3391 73,-169 73,-169 73,-169 246.3719,-169 246.3719,-169"/>
<polygon fill="#000000" stroke="#000000" points="246.3719,-172.5001 256.3719,-169 246.3719,-165.5001 246.3719,-172.5001"/>
</g>
</g>
</svg>
