<?xml version="1.0" encoding="UTF-8" standalone="no"?>
<!DOCTYPE svg PUBLIC "-//W3C//DTD SVG 1.1//EN"
 "http://www.w3.org/Graphics/SVG/1.1/DTD/svg11.dtd">
<!-- Generated by graphviz version 2.40.1 (20161225.0304)
 -->
<!-- Title: dependencies Pages: 1 -->
<svg width="2908pt" height="360pt"
 viewBox="0.00 0.00 2908.00 360.00" xmlns="http://www.w3.org/2000/svg" xmlns:xlink="http://www.w3.org/1999/xlink">
<g id="graph0" class="graph" transform="scale(1 1) rotate(0) translate(4 356)">
<title>dependencies</title>
<polygon fill="#ffffff" stroke="transparent" points="-4,4 -4,-356 2904,-356 2904,4 -4,4"/>
<text text-anchor="start" x="1429.0091" y="-42.4" font-family="sans-serif" font-weight="bold" font-size="14.00" fill="#000000">Legend</text>
<polygon fill="#ffffb3" stroke="transparent" points="1216,-10 1216,-30 1236,-30 1236,-10 1216,-10"/>
<text text-anchor="start" x="1239.629" y="-15.4" font-family="sans-serif" font-size="14.00" fill="#000000"> &#160;Declarations</text>
<polygon fill="#8dd3c7" stroke="transparent" points="1329,-10 1329,-30 1349,-30 1349,-10 1329,-10"/>
<text text-anchor="start" x="1352.7251" y="-15.4" font-family="sans-serif" font-size="14.00" fill="#000000"> &#160;Module</text>
<polygon fill="#80b1d3" stroke="transparent" points="1415,-10 1415,-30 1435,-30 1435,-10 1415,-10"/>
<text text-anchor="start" x="1438.7812" y="-15.4" font-family="sans-serif" font-size="14.00" fill="#000000"> &#160;Bootstrap</text>
<polygon fill="#fdb462" stroke="transparent" points="1512,-10 1512,-30 1532,-30 1532,-10 1512,-10"/>
<text text-anchor="start" x="1535.6732" y="-15.4" font-family="sans-serif" font-size="14.00" fill="#000000"> &#160;Providers</text>
<polygon fill="#fb8072" stroke="transparent" points="1608,-10 1608,-30 1628,-30 1628,-10 1608,-10"/>
<text text-anchor="start" x="1631.7258" y="-15.4" font-family="sans-serif" font-size="14.00" fill="#000000"> &#160;Exports</text>
<g id="clust1" class="cluster">
<title>cluster_AppModule</title>
<polygon fill="none" stroke="#000000" stroke-dasharray="1,5" points="528,-146 528,-344 1182,-344 1182,-146 528,-146"/>
</g>
<g id="clust2" class="cluster">
<title>cluster_AppModule_declarations</title>
<polygon fill="none" stroke="#000000" points="1052,-154 1052,-206 1174,-206 1174,-154 1052,-154"/>
</g>
<g id="clust4" class="cluster">
<title>cluster_AppModule_imports</title>
<polygon fill="none" stroke="#000000" points="536,-154 536,-206 1044,-206 1044,-154 536,-154"/>
</g>
<g id="clust6" class="cluster">
<title>cluster_AppModule_bootstrap</title>
<polygon fill="none" stroke="#000000" points="756,-284 756,-336 880,-336 880,-284 756,-284"/>
</g>
<g id="clust14" class="cluster">
<title>cluster_LoginModule</title>
<polygon fill="none" stroke="#000000" stroke-dasharray="1,5" points="664,-70 664,-138 972,-138 972,-70 664,-70"/>
</g>
<g id="clust15" class="cluster">
<title>cluster_LoginModule_declarations</title>
<polygon fill="none" stroke="#000000" points="834,-78 834,-130 964,-130 964,-78 834,-78"/>
</g>
<g id="clust17" class="cluster">
<title>cluster_LoginModule_imports</title>
<polygon fill="none" stroke="#000000" points="672,-78 672,-130 826,-130 826,-78 672,-78"/>
</g>
<g id="clust27" class="cluster">
<title>cluster_PageNotFoundModule</title>
<polygon fill="none" stroke="#000000" stroke-dasharray="1,5" points="980,-70 980,-138 1390,-138 1390,-70 980,-70"/>
</g>
<g id="clust28" class="cluster">
<title>cluster_PageNotFoundModule_declarations</title>
<polygon fill="none" stroke="#000000" points="1200,-78 1200,-130 1382,-130 1382,-78 1200,-78"/>
</g>
<g id="clust30" class="cluster">
<title>cluster_PageNotFoundModule_imports</title>
<polygon fill="none" stroke="#000000" points="988,-78 988,-130 1192,-130 1192,-78 988,-78"/>
</g>
<g id="clust40" class="cluster">
<title>cluster_PrestationsModule</title>
<polygon fill="none" stroke="#000000" stroke-dasharray="1,5" points="1398,-70 1398,-206 2088,-206 2088,-70 1398,-70"/>
</g>
<g id="clust41" class="cluster">
<title>cluster_PrestationsModule_declarations</title>
<polygon fill="none" stroke="#000000" points="1406,-78 1406,-130 1774,-130 1774,-78 1406,-78"/>
</g>
<g id="clust44" class="cluster">
<title>cluster_PrestationsModule_imports</title>
<polygon fill="none" stroke="#000000" points="1782,-78 1782,-130 2080,-130 2080,-78 1782,-78"/>
</g>
<g id="clust54" class="cluster">
<title>cluster_SharedModule</title>
<polygon fill="none" stroke="#000000" stroke-dasharray="1,5" points="2096,-146 2096,-214 2892,-214 2892,-146 2096,-146"/>
</g>
<g id="clust55" class="cluster">
<title>cluster_SharedModule_declarations</title>
<polygon fill="none" stroke="#000000" points="2504,-154 2504,-206 2884,-206 2884,-154 2504,-154"/>
</g>
<g id="clust60" class="cluster">
<title>cluster_SharedModule_exports</title>
<polygon fill="none" stroke="#000000" points="2104,-154 2104,-206 2496,-206 2496,-154 2104,-154"/>
</g>
<g id="clust63" class="cluster">
<title>cluster_UiModule</title>
<polygon fill="none" stroke="#000000" stroke-dasharray="1,5" points="8,-70 8,-138 656,-138 656,-70 8,-70"/>
</g>
<g id="clust64" class="cluster">
<title>cluster_UiModule_declarations</title>
<polygon fill="none" stroke="#000000" points="138,-78 138,-130 648,-130 648,-78 138,-78"/>
</g>
<g id="clust70" class="cluster">
<title>cluster_UiModule_exports</title>
<polygon fill="none" stroke="#000000" points="16,-78 16,-130 130,-130 130,-78 16,-78"/>
</g>
<!-- AppComponent -->
<g id="node1" class="node">
<title>AppComponent</title>
<polygon fill="#ffffb3" stroke="#000000" points="1165.9399,-198 1060.0601,-198 1060.0601,-162 1165.9399,-162 1165.9399,-198"/>
<text text-anchor="middle" x="1113" y="-175.8" font-family="Times,serif" font-size="14.00" fill="#000000">AppComponent</text>
</g>
<!-- AppModule -->
<g id="node2" class="node">
<title>AppModule</title>
<polygon fill="#8dd3c7" stroke="#000000" points="859.6571,-263 856.6571,-267 835.6571,-267 832.6571,-263 776.3429,-263 776.3429,-227 859.6571,-227 859.6571,-263"/>
<text text-anchor="middle" x="818" y="-240.8" font-family="Times,serif" font-size="14.00" fill="#000000">AppModule</text>
</g>
<!-- AppComponent&#45;&gt;AppModule -->
<g id="edge1" class="edge">
<title>AppComponent&#45;&gt;AppModule</title>
<path fill="none" stroke="#000000" d="M1113,-198.2843C1113,-219.3211 1113,-251 1113,-251 1113,-251 869.953,-251 869.953,-251"/>
<polygon fill="#000000" stroke="#000000" points="869.9531,-247.5001 859.953,-251 869.953,-254.5001 869.9531,-247.5001"/>
</g>
<!-- AppComponent  -->
<g id="node7" class="node">
<title>AppComponent </title>
<polygon fill="#80b1d3" stroke="#000000" points="872.439,-328 763.561,-328 763.561,-292 872.439,-292 872.439,-328"/>
<text text-anchor="middle" x="818" y="-305.8" font-family="Times,serif" font-size="14.00" fill="#000000">AppComponent </text>
</g>
<!-- AppModule&#45;&gt;AppComponent  -->
<g id="edge6" class="edge">
<title>AppModule&#45;&gt;AppComponent </title>
<path fill="none" stroke="#000000" stroke-dasharray="1,5" d="M818,-263.1061C818,-263.1061 818,-281.991 818,-281.991"/>
<polygon fill="#000000" stroke="#000000" points="814.5001,-281.9909 818,-291.991 821.5001,-281.991 814.5001,-281.9909"/>
</g>
<!-- AppRoutingModule -->
<g id="node3" class="node">
<title>AppRoutingModule</title>
<polygon fill="#8dd3c7" stroke="#000000" points="1036.2744,-198 1033.2744,-202 1012.2744,-202 1009.2744,-198 907.7256,-198 907.7256,-162 1036.2744,-162 1036.2744,-198"/>
<text text-anchor="middle" x="972" y="-175.8" font-family="Times,serif" font-size="14.00" fill="#000000">AppRoutingModule</text>
</g>
<!-- AppRoutingModule&#45;&gt;AppModule -->
<g id="edge2" class="edge">
<title>AppRoutingModule&#45;&gt;AppModule</title>
<path fill="none" stroke="#000000" d="M972,-198.0225C972,-215.3734 972,-239 972,-239 972,-239 869.6746,-239 869.6746,-239"/>
<polygon fill="#000000" stroke="#000000" points="869.6747,-235.5001 859.6746,-239 869.6746,-242.5001 869.6747,-235.5001"/>
</g>
<!-- LoginModule -->
<g id="node4" class="node">
<title>LoginModule</title>
<polygon fill="#8dd3c7" stroke="#000000" points="728.493,-198 725.493,-202 704.493,-202 701.493,-198 635.507,-198 635.507,-162 728.493,-162 728.493,-198"/>
<text text-anchor="middle" x="682" y="-175.8" font-family="Times,serif" font-size="14.00" fill="#000000">LoginModule</text>
</g>
<!-- LoginModule&#45;&gt;AppModule -->
<g id="edge3" class="edge">
<title>LoginModule&#45;&gt;AppModule</title>
<path fill="none" stroke="#000000" d="M682,-198.0225C682,-215.3734 682,-239 682,-239 682,-239 766.0858,-239 766.0858,-239"/>
<polygon fill="#000000" stroke="#000000" points="766.0858,-242.5001 776.0858,-239 766.0858,-235.5001 766.0858,-242.5001"/>
</g>
<!-- PageNotFoundModule -->
<g id="node5" class="node">
<title>PageNotFoundModule</title>
<polygon fill="#8dd3c7" stroke="#000000" points="889.5421,-198 886.5421,-202 865.5421,-202 862.5421,-198 746.4579,-198 746.4579,-162 889.5421,-162 889.5421,-198"/>
<text text-anchor="middle" x="818" y="-175.8" font-family="Times,serif" font-size="14.00" fill="#000000">PageNotFoundModule</text>
</g>
<!-- PageNotFoundModule&#45;&gt;AppModule -->
<g id="edge4" class="edge">
<title>PageNotFoundModule&#45;&gt;AppModule</title>
<path fill="none" stroke="#000000" d="M818,-198.1061C818,-198.1061 818,-216.991 818,-216.991"/>
<polygon fill="#000000" stroke="#000000" points="814.5001,-216.9909 818,-226.991 821.5001,-216.991 814.5001,-216.9909"/>
</g>
<!-- UiModule -->
<g id="node6" class="node">
<title>UiModule</title>
<polygon fill="#8dd3c7" stroke="#000000" points="617.5484,-198 614.5484,-202 593.5484,-202 590.5484,-198 544.4516,-198 544.4516,-162 617.5484,-162 617.5484,-198"/>
<text text-anchor="middle" x="581" y="-175.8" font-family="Times,serif" font-size="14.00" fill="#000000">UiModule</text>
</g>
<!-- UiModule&#45;&gt;AppModule -->
<g id="edge5" class="edge">
<title>UiModule&#45;&gt;AppModule</title>
<path fill="none" stroke="#000000" d="M581,-198.2843C581,-219.3211 581,-251 581,-251 581,-251 766.1747,-251 766.1747,-251"/>
<polygon fill="#000000" stroke="#000000" points="766.1747,-254.5001 776.1747,-251 766.1747,-247.5001 766.1747,-254.5001"/>
</g>
<!-- UiComponent  -->
<g id="node27" class="node">
<title>UiComponent </title>
<polygon fill="#fb8072" stroke="#000000" points="122.3297,-122 23.6703,-122 23.6703,-86 122.3297,-86 122.3297,-122"/>
<text text-anchor="middle" x="73" y="-99.8" font-family="Times,serif" font-size="14.00" fill="#000000">UiComponent </text>
</g>
<!-- UiModule&#45;&gt;UiComponent  -->
<g id="edge25" class="edge">
<title>UiModule&#45;&gt;UiComponent </title>
<path fill="none" stroke="#000000" stroke-dasharray="5,2" d="M544.0567,-191C427.1572,-191 73,-191 73,-191 73,-191 73,-132.0265 73,-132.0265"/>
<polygon fill="#000000" stroke="#000000" points="76.5001,-132.0264 73,-122.0265 69.5001,-132.0265 76.5001,-132.0264"/>
</g>
<!-- LoginComponent -->
<g id="node8" class="node">
<title>LoginComponent</title>
<polygon fill="#ffffb3" stroke="#000000" points="956.2758,-122 841.7242,-122 841.7242,-86 956.2758,-86 956.2758,-122"/>
<text text-anchor="middle" x="899" y="-99.8" font-family="Times,serif" font-size="14.00" fill="#000000">LoginComponent</text>
</g>
<!-- LoginComponent&#45;&gt;LoginModule -->
<g id="edge7" class="edge">
<title>LoginComponent&#45;&gt;LoginModule</title>
<path fill="none" stroke="#000000" d="M853.6518,-122.207C853.6518,-127.5549 853.6518,-132 853.6518,-132 853.6518,-132 712.3125,-132 712.3125,-132 712.3125,-132 712.3125,-151.8533 712.3125,-151.8533"/>
<polygon fill="#000000" stroke="#000000" points="708.8126,-151.8532 712.3125,-161.8533 715.8126,-151.8533 708.8126,-151.8532"/>
</g>
<!-- LoginRoutingModule -->
<g id="node9" class="node">
<title>LoginRoutingModule</title>
<polygon fill="#8dd3c7" stroke="#000000" points="818.1108,-122 815.1108,-126 794.1108,-126 791.1108,-122 679.8892,-122 679.8892,-86 818.1108,-86 818.1108,-122"/>
<text text-anchor="middle" x="749" y="-99.8" font-family="Times,serif" font-size="14.00" fill="#000000">LoginRoutingModule</text>
</g>
<!-- LoginRoutingModule&#45;&gt;LoginModule -->
<g id="edge8" class="edge">
<title>LoginRoutingModule&#45;&gt;LoginModule</title>
<path fill="none" stroke="#000000" d="M696.1286,-122.0109C696.1286,-122.0109 696.1286,-151.855 696.1286,-151.855"/>
<polygon fill="#000000" stroke="#000000" points="692.6287,-151.8549 696.1286,-161.855 699.6287,-151.855 692.6287,-151.8549"/>
</g>
<!-- PageNotFoundComponent -->
<g id="node10" class="node">
<title>PageNotFoundComponent</title>
<polygon fill="#ffffb3" stroke="#000000" points="1373.8243,-122 1208.1757,-122 1208.1757,-86 1373.8243,-86 1373.8243,-122"/>
<text text-anchor="middle" x="1291" y="-99.8" font-family="Times,serif" font-size="14.00" fill="#000000">PageNotFoundComponent</text>
</g>
<!-- PageNotFoundComponent&#45;&gt;PageNotFoundModule -->
<g id="edge9" class="edge">
<title>PageNotFoundComponent&#45;&gt;PageNotFoundModule</title>
<path fill="none" stroke="#000000" d="M1291,-122.1467C1291,-135.7395 1291,-152 1291,-152 1291,-152 877.7311,-152 877.7311,-152 877.7311,-152 877.7311,-152.9793 877.7311,-152.9793"/>
<polygon fill="#000000" stroke="#000000" points="874.2312,-151.793 877.7311,-161.793 881.2312,-151.7931 874.2312,-151.793"/>
</g>
<!-- PageNotFoundRoutingModule -->
<g id="node11" class="node">
<title>PageNotFoundRoutingModule</title>
<polygon fill="#8dd3c7" stroke="#000000" points="1184.1595,-122 1181.1595,-126 1160.1595,-126 1157.1595,-122 995.8405,-122 995.8405,-86 1184.1595,-86 1184.1595,-122"/>
<text text-anchor="middle" x="1090" y="-99.8" font-family="Times,serif" font-size="14.00" fill="#000000">PageNotFoundRoutingModule</text>
</g>
<!-- PageNotFoundRoutingModule&#45;&gt;PageNotFoundModule -->
<g id="edge10" class="edge">
<title>PageNotFoundRoutingModule&#45;&gt;PageNotFoundModule</title>
<path fill="none" stroke="#000000" d="M1016.0288,-122.1097C1016.0288,-131.897 1016.0288,-142 1016.0288,-142 1016.0288,-142 865.6915,-142 865.6915,-142 865.6915,-142 865.6915,-151.8903 865.6915,-151.8903"/>
<polygon fill="#000000" stroke="#000000" points="862.1915,-151.8903 865.6915,-161.8903 869.1915,-151.8904 862.1915,-151.8903"/>
</g>
<!-- LignePrestationComponent -->
<g id="node12" class="node">
<title>LignePrestationComponent</title>
<polygon fill="#ffffb3" stroke="#000000" points="1765.979,-122 1596.021,-122 1596.021,-86 1765.979,-86 1765.979,-122"/>
<text text-anchor="middle" x="1681" y="-99.8" font-family="Times,serif" font-size="14.00" fill="#000000">LignePrestationComponent</text>
</g>
<!-- PrestationsModule -->
<g id="node14" class="node">
<title>PrestationsModule</title>
<polygon fill="#8dd3c7" stroke="#000000" points="1837.4832,-198 1834.4832,-202 1813.4832,-202 1810.4832,-198 1716.5168,-198 1716.5168,-162 1837.4832,-162 1837.4832,-198"/>
<text text-anchor="middle" x="1777" y="-175.8" font-family="Times,serif" font-size="14.00" fill="#000000">PrestationsModule</text>
</g>
<!-- LignePrestationComponent&#45;&gt;PrestationsModule -->
<g id="edge11" class="edge">
<title>LignePrestationComponent&#45;&gt;PrestationsModule</title>
<path fill="none" stroke="#000000" d="M1741.249,-122.0109C1741.249,-122.0109 1741.249,-151.855 1741.249,-151.855"/>
<polygon fill="#000000" stroke="#000000" points="1737.749,-151.8549 1741.249,-161.855 1744.749,-151.855 1737.749,-151.8549"/>
</g>
<!-- ListPrestationsComponent -->
<g id="node13" class="node">
<title>ListPrestationsComponent</title>
<polygon fill="#ffffb3" stroke="#000000" points="1578.0448,-122 1413.9552,-122 1413.9552,-86 1578.0448,-86 1578.0448,-122"/>
<text text-anchor="middle" x="1496" y="-99.8" font-family="Times,serif" font-size="14.00" fill="#000000">ListPrestationsComponent</text>
</g>
<!-- ListPrestationsComponent&#45;&gt;PrestationsModule -->
<g id="edge12" class="edge">
<title>ListPrestationsComponent&#45;&gt;PrestationsModule</title>
<path fill="none" stroke="#000000" d="M1496,-122.0109C1496,-144.4852 1496,-180 1496,-180 1496,-180 1706.3731,-180 1706.3731,-180"/>
<polygon fill="#000000" stroke="#000000" points="1706.3732,-183.5001 1716.3731,-180 1706.3731,-176.5001 1706.3732,-183.5001"/>
</g>
<!-- PrestationsRoutingModule -->
<g id="node15" class="node">
<title>PrestationsRoutingModule</title>
<polygon fill="#8dd3c7" stroke="#000000" points="1956.101,-122 1953.101,-126 1932.101,-126 1929.101,-122 1789.899,-122 1789.899,-86 1956.101,-86 1956.101,-122"/>
<text text-anchor="middle" x="1873" y="-99.8" font-family="Times,serif" font-size="14.00" fill="#000000">PrestationsRoutingModule</text>
</g>
<!-- PrestationsRoutingModule&#45;&gt;PrestationsModule -->
<g id="edge13" class="edge">
<title>PrestationsRoutingModule&#45;&gt;PrestationsModule</title>
<path fill="none" stroke="#000000" d="M1813.7206,-122.0109C1813.7206,-122.0109 1813.7206,-151.855 1813.7206,-151.855"/>
<polygon fill="#000000" stroke="#000000" points="1810.2206,-151.8549 1813.7206,-161.855 1817.2206,-151.855 1810.2206,-151.8549"/>
</g>
<!-- SharedModule -->
<g id="node16" class="node">
<title>SharedModule</title>
<polygon fill="#8dd3c7" stroke="#000000" points="2072.4231,-122 2069.4231,-126 2048.4231,-126 2045.4231,-122 1973.5769,-122 1973.5769,-86 2072.4231,-86 2072.4231,-122"/>
<text text-anchor="middle" x="2023" y="-99.8" font-family="Times,serif" font-size="14.00" fill="#000000">SharedModule</text>
</g>
<!-- SharedModule&#45;&gt;PrestationsModule -->
<g id="edge14" class="edge">
<title>SharedModule&#45;&gt;PrestationsModule</title>
<path fill="none" stroke="#000000" d="M2023,-122.0109C2023,-144.4852 2023,-180 2023,-180 2023,-180 1847.4934,-180 1847.4934,-180"/>
<polygon fill="#000000" stroke="#000000" points="1847.4935,-176.5001 1837.4934,-180 1847.4934,-183.5001 1847.4935,-176.5001"/>
</g>
<!-- AddRowComponent  -->
<g id="node20" class="node">
<title>AddRowComponent </title>
<polygon fill="#fb8072" stroke="#000000" points="2487.8827,-198 2352.1173,-198 2352.1173,-162 2487.8827,-162 2487.8827,-198"/>
<text text-anchor="middle" x="2420" y="-175.8" font-family="Times,serif" font-size="14.00" fill="#000000">AddRowComponent </text>
</g>
<!-- SharedModule&#45;&gt;AddRowComponent  -->
<g id="edge18" class="edge">
<title>SharedModule&#45;&gt;AddRowComponent </title>
<path fill="none" stroke="#000000" stroke-dasharray="5,2" d="M2072.4776,-107C2178.9005,-107 2420,-107 2420,-107 2420,-107 2420,-151.9551 2420,-151.9551"/>
<polygon fill="#000000" stroke="#000000" points="2416.5001,-151.955 2420,-161.9551 2423.5001,-151.9551 2416.5001,-151.955"/>
</g>
<!-- TableauComponent  -->
<g id="node21" class="node">
<title>TableauComponent </title>
<polygon fill="#fb8072" stroke="#000000" points="2333.9194,-198 2204.0806,-198 2204.0806,-162 2333.9194,-162 2333.9194,-198"/>
<text text-anchor="middle" x="2269" y="-175.8" font-family="Times,serif" font-size="14.00" fill="#000000">TableauComponent </text>
</g>
<!-- SharedModule&#45;&gt;TableauComponent  -->
<g id="edge19" class="edge">
<title>SharedModule&#45;&gt;TableauComponent </title>
<path fill="none" stroke="#000000" stroke-dasharray="5,2" d="M2072.4859,-112C2144.3219,-112 2269,-112 2269,-112 2269,-112 2269,-151.7772 2269,-151.7772"/>
<polygon fill="#000000" stroke="#000000" points="2265.5001,-151.7772 2269,-161.7772 2272.5001,-151.7773 2265.5001,-151.7772"/>
</g>
<!-- TotalPipe  -->
<g id="node22" class="node">
<title>TotalPipe </title>
<polygon fill="#fb8072" stroke="#000000" points="2185.9362,-198 2112.0638,-198 2112.0638,-162 2185.9362,-162 2185.9362,-198"/>
<text text-anchor="middle" x="2149" y="-175.8" font-family="Times,serif" font-size="14.00" fill="#000000">TotalPipe </text>
</g>
<!-- SharedModule&#45;&gt;TotalPipe  -->
<g id="edge20" class="edge">
<title>SharedModule&#45;&gt;TotalPipe </title>
<path fill="none" stroke="#000000" stroke-dasharray="5,2" d="M2072.4369,-117C2107.7365,-117 2149,-117 2149,-117 2149,-117 2149,-151.7778 2149,-151.7778"/>
<polygon fill="#000000" stroke="#000000" points="2145.5001,-151.7778 2149,-161.7778 2152.5001,-151.7778 2145.5001,-151.7778"/>
</g>
<!-- AddRowComponent -->
<g id="node17" class="node">
<title>AddRowComponent</title>
<polygon fill="#ffffb3" stroke="#000000" points="2875.8823,-198 2744.1177,-198 2744.1177,-162 2875.8823,-162 2875.8823,-198"/>
<text text-anchor="middle" x="2810" y="-175.8" font-family="Times,serif" font-size="14.00" fill="#000000">AddRowComponent</text>
</g>
<!-- AddRowComponent&#45;&gt;SharedModule -->
<g id="edge15" class="edge">
<title>AddRowComponent&#45;&gt;SharedModule</title>
<path fill="none" stroke="#000000" d="M2810,-161.7663C2810,-135.9906 2810,-92 2810,-92 2810,-92 2082.2304,-92 2082.2304,-92"/>
<polygon fill="#000000" stroke="#000000" points="2082.2304,-88.5001 2072.2304,-92 2082.2303,-95.5001 2082.2304,-88.5001"/>
</g>
<!-- TableauComponent -->
<g id="node18" class="node">
<title>TableauComponent</title>
<polygon fill="#ffffb3" stroke="#000000" points="2726.4201,-198 2599.5799,-198 2599.5799,-162 2726.4201,-162 2726.4201,-198"/>
<text text-anchor="middle" x="2663" y="-175.8" font-family="Times,serif" font-size="14.00" fill="#000000">TableauComponent</text>
</g>
<!-- TableauComponent&#45;&gt;SharedModule -->
<g id="edge16" class="edge">
<title>TableauComponent&#45;&gt;SharedModule</title>
<path fill="none" stroke="#000000" d="M2663,-161.9902C2663,-137.5793 2663,-97 2663,-97 2663,-97 2082.4218,-97 2082.4218,-97"/>
<polygon fill="#000000" stroke="#000000" points="2082.4218,-93.5001 2072.4218,-97 2082.4218,-100.5001 2082.4218,-93.5001"/>
</g>
<!-- TotalPipe -->
<g id="node19" class="node">
<title>TotalPipe</title>
<polygon fill="#ffffb3" stroke="#000000" points="2582.4376,-198 2511.5624,-198 2511.5624,-162 2582.4376,-162 2582.4376,-198"/>
<text text-anchor="middle" x="2547" y="-175.8" font-family="Times,serif" font-size="14.00" fill="#000000">TotalPipe</text>
</g>
<!-- TotalPipe&#45;&gt;SharedModule -->
<g id="edge17" class="edge">
<title>TotalPipe&#45;&gt;SharedModule</title>
<path fill="none" stroke="#000000" d="M2547,-161.9092C2547,-138.8672 2547,-102 2547,-102 2547,-102 2082.2966,-102 2082.2966,-102"/>
<polygon fill="#000000" stroke="#000000" points="2082.2967,-98.5001 2072.2966,-102 2082.2966,-105.5001 2082.2967,-98.5001"/>
</g>
<!-- FooterComponent -->
<g id="node23" class="node">
<title>FooterComponent</title>
<polygon fill="#ffffb3" stroke="#000000" points="639.8809,-122 522.1191,-122 522.1191,-86 639.8809,-86 639.8809,-122"/>
<text text-anchor="middle" x="581" y="-99.8" font-family="Times,serif" font-size="14.00" fill="#000000">FooterComponent</text>
</g>
<!-- FooterComponent&#45;&gt;UiModule -->
<g id="edge21" class="edge">
<title>FooterComponent&#45;&gt;UiModule</title>
<path fill="none" stroke="#000000" d="M581,-122.0109C581,-122.0109 581,-151.855 581,-151.855"/>
<polygon fill="#000000" stroke="#000000" points="577.5001,-151.8549 581,-161.855 584.5001,-151.855 577.5001,-151.8549"/>
</g>
<!-- HeaderComponent -->
<g id="node24" class="node">
<title>HeaderComponent</title>
<polygon fill="#ffffb3" stroke="#000000" points="503.7437,-122 382.2563,-122 382.2563,-86 503.7437,-86 503.7437,-122"/>
<text text-anchor="middle" x="443" y="-99.8" font-family="Times,serif" font-size="14.00" fill="#000000">HeaderComponent</text>
</g>
<!-- HeaderComponent&#45;&gt;UiModule -->
<g id="edge22" class="edge">
<title>HeaderComponent&#45;&gt;UiModule</title>
<path fill="none" stroke="#000000" d="M443,-122.0348C443,-141.5762 443,-170 443,-170 443,-170 534.3808,-170 534.3808,-170"/>
<polygon fill="#000000" stroke="#000000" points="534.3809,-173.5001 544.3808,-170 534.3808,-166.5001 534.3809,-173.5001"/>
</g>
<!-- NavComponent -->
<g id="node25" class="node">
<title>NavComponent</title>
<polygon fill="#ffffb3" stroke="#000000" points="364.1542,-122 259.8458,-122 259.8458,-86 364.1542,-86 364.1542,-122"/>
<text text-anchor="middle" x="312" y="-99.8" font-family="Times,serif" font-size="14.00" fill="#000000">NavComponent</text>
</g>
<!-- NavComponent&#45;&gt;UiModule -->
<g id="edge23" class="edge">
<title>NavComponent&#45;&gt;UiModule</title>
<path fill="none" stroke="#000000" d="M312,-122.0449C312,-143.6623 312,-177 312,-177 312,-177 534.4415,-177 534.4415,-177"/>
<polygon fill="#000000" stroke="#000000" points="534.4415,-180.5001 544.4415,-177 534.4415,-173.5001 534.4415,-180.5001"/>
</g>
<!-- UiComponent -->
<g id="node26" class="node">
<title>UiComponent</title>
<polygon fill="#ffffb3" stroke="#000000" points="241.8302,-122 146.1698,-122 146.1698,-86 241.8302,-86 241.8302,-122"/>
<text text-anchor="middle" x="194" y="-99.8" font-family="Times,serif" font-size="14.00" fill="#000000">UiComponent</text>
</g>
<!-- UiComponent&#45;&gt;UiModule -->
<g id="edge24" class="edge">
<title>UiComponent&#45;&gt;UiModule</title>
<path fill="none" stroke="#000000" d="M194,-122.1532C194,-145.7566 194,-184 194,-184 194,-184 534.2431,-184 534.2431,-184"/>
<polygon fill="#000000" stroke="#000000" points="534.2431,-187.5001 544.2431,-184 534.243,-180.5001 534.2431,-187.5001"/>
</g>
</g>
</svg>
